REM DIRINDEX 1\2\4\18,1\2\4\19,1\2\5\20,1\2\5\21,1\2\6\22,1\2\7\23,1\2\8\24,1\2\8\25,1\2\9\26,1\2\10\27,1\3\11\28,1\3\11\29,1\3\11\30,1\3\11\31,1\3\12\32,1\3\12\33,1\3\12\34,1\3\12\35,1\3\13\36,1\3\13\37,1\3\14\38,1\3\14\39,1\3\15\40,1\3\15\41,1\3\15\42,1\3\16\43,1\3\16\44,1\3\17\45,1\3\17\46
REM DIRNAME cjc023,folder01,folder02,folder03,folder04,folder05,folder06,folder07,folder08,folder09,folder10,folder11,folder12,folder13,folder14,folder15,folder16,folder17,folder18,folder19,folder20,folder21,folder22,folder23,folder24,folder25,folder26,folder27,folder28,folder29,folder30,folder31,folder32,folder33,folder34,folder35,folder36,folder37,folder38,folder39,folder40,folder41,folder42,folder43,folder44,folder45
TITLE ""
FILE "05.mp3" MP3
  TRACK 01 AUDIO
    TITLE "0:"
    INDEX 01 00:00:00
  TRACK 02 AUDIO
    TITLE "20:cjc023_0801"
    INDEX 01 00:00:13
  TRACK 03 AUDIO
    TITLE "0:"
    INDEX 01 00:01:24
  TRACK 04 AUDIO
    TITLE "21:cjc023_0802"
    INDEX 01 00:01:46
  TRACK 05 AUDIO
    TITLE "0:"
    INDEX 01 00:03:33
  TRACK 06 AUDIO
    TITLE "20:cjc023_0803"
    INDEX 01 00:04:33
  TRACK 07 AUDIO
    TITLE "0:"
    INDEX 01 00:05:38
  TRACK 08 AUDIO
    TITLE "21:cjc023_0804"
    INDEX 01 00:05:63
  TRACK 09 AUDIO
    TITLE "0:"
    INDEX 01 00:08:24
  TRACK 10 AUDIO
    TITLE "20:cjc023_0805"
    INDEX 01 00:09:26
  TRACK 11 AUDIO
    TITLE "0:"
    INDEX 01 00:10:25
  TRACK 12 AUDIO
    TITLE "21:cjc023_0806"
    INDEX 01 00:10:47
  TRACK 13 AUDIO
    TITLE "0:"
    INDEX 01 00:13:12
  TRACK 14 AUDIO
    TITLE "20:cjc023_0807"
    INDEX 01 00:14:11
  TRACK 15 AUDIO
    TITLE "0:"
    INDEX 01 00:15:17
  TRACK 16 AUDIO
    TITLE "21:cjc023_0808"
    INDEX 01 00:15:40
  TRACK 17 AUDIO
    TITLE "0:"
    INDEX 01 00:17:74
  TRACK 18 AUDIO
    TITLE "20:cjc023_0809"
    INDEX 01 00:18:70
  TRACK 19 AUDIO
    TITLE "0:"
    INDEX 01 00:20:00
  TRACK 20 AUDIO
    TITLE "21:cjc023_0810"
    INDEX 01 00:20:22
  TRACK 21 AUDIO
    TITLE "0:"
    INDEX 01 00:22:48
  TRACK 22 AUDIO
    TITLE "20:cjc023_0811"
    INDEX 01 00:23:51
  TRACK 23 AUDIO
    TITLE "0:"
    INDEX 01 00:24:57
  TRACK 24 AUDIO
    TITLE "21:cjc023_0812"
    INDEX 01 00:25:03
  TRACK 25 AUDIO
    TITLE "0:"
    INDEX 01 00:27:39
  TRACK 26 AUDIO
    TITLE "20:cjc023_0813"
    INDEX 01 00:28:37
  TRACK 27 AUDIO
    TITLE "0:"
    INDEX 01 00:29:54
  TRACK 28 AUDIO
    TITLE "21:cjc023_0814"
    INDEX 01 00:30:03
  TRACK 29 AUDIO
    TITLE "0:"
    INDEX 01 00:32:60
  TRACK 30 AUDIO
    TITLE "20:cjc023_0815"
    INDEX 01 00:33:58
  TRACK 31 AUDIO
    TITLE "0:"
    INDEX 01 00:34:57
  TRACK 32 AUDIO
    TITLE "21:cjc023_0816"
    INDEX 01 00:35:02
  TRACK 33 AUDIO
    TITLE "0:"
    INDEX 01 00:36:62
  TRACK 34 AUDIO
    TITLE "20:cjc023_0817"
    INDEX 01 00:37:63
  TRACK 35 AUDIO
    TITLE "0:"
    INDEX 01 00:38:57
  TRACK 36 AUDIO
    TITLE "21:cjc023_0818"
    INDEX 01 00:39:17
  TRACK 37 AUDIO
    TITLE "0:"
    INDEX 01 00:41:30
  TRACK 38 AUDIO
    TITLE "20:cjc023_0819"
    INDEX 01 00:42:25
  TRACK 39 AUDIO
    TITLE "0:"
    INDEX 01 00:43:44
  TRACK 40 AUDIO
    TITLE "21:cjc023_0820"
    INDEX 01 00:43:66
  TRACK 41 AUDIO
    TITLE "0:"
    INDEX 01 00:46:09
  TRACK 42 AUDIO
    TITLE "20:cjc023_0821"
    INDEX 01 00:47:05
  TRACK 43 AUDIO
    TITLE "0:"
    INDEX 01 00:47:72
  TRACK 44 AUDIO
    TITLE "21:cjc023_0822"
    INDEX 01 00:48:18
  TRACK 45 AUDIO
    TITLE "0:"
    INDEX 01 00:50:72
  TRACK 46 AUDIO
    TITLE "20:cjc023_0823"
    INDEX 01 00:51:69
  TRACK 47 AUDIO
    TITLE "0:"
    INDEX 01 00:52:71
  TRACK 48 AUDIO
    TITLE "21:cjc023_0824"
    INDEX 01 00:53:17
  TRACK 49 AUDIO
    TITLE "0:"
    INDEX 01 00:55:32
  TRACK 50 AUDIO
    TITLE "20:cjc023_0825"
    INDEX 01 00:56:27
  TRACK 51 AUDIO
    TITLE "0:"
    INDEX 01 00:57:35
  TRACK 52 AUDIO
    TITLE "21:cjc023_0826"
    INDEX 01 00:57:56
  TRACK 53 AUDIO
    TITLE "0:"
    INDEX 01 01:00:45
  TRACK 54 AUDIO
    TITLE "20:cjc023_0827"
    INDEX 01 01:01:40
  TRACK 55 AUDIO
    TITLE "0:"
    INDEX 01 01:02:48
  TRACK 56 AUDIO
    TITLE "21:cjc023_0828"
    INDEX 01 01:02:73
  TRACK 57 AUDIO
    TITLE "0:"
    INDEX 01 01:05:24
  TRACK 58 AUDIO
    TITLE "20:cjc023_0829"
    INDEX 01 01:06:20
  TRACK 59 AUDIO
    TITLE "0:"
    INDEX 01 01:07:25
  TRACK 60 AUDIO
    TITLE "21:cjc023_0830"
    INDEX 01 01:07:45
  TRACK 61 AUDIO
    TITLE "0:"
    INDEX 01 01:09:63
  TRACK 62 AUDIO
    TITLE "20:cjc023_0831"
    INDEX 01 01:10:57
  TRACK 63 AUDIO
    TITLE "0:"
    INDEX 01 01:11:54
  TRACK 64 AUDIO
    TITLE "21:cjc023_0832"
    INDEX 01 01:12:01
  TRACK 65 AUDIO
    TITLE "0:"
    INDEX 01 01:14:14
  TRACK 66 AUDIO
    TITLE "20:cjc023_0833"
    INDEX 01 01:15:13
  TRACK 67 AUDIO
    TITLE "0:"
    INDEX 01 01:16:24
  TRACK 68 AUDIO
    TITLE "21:cjc023_0834"
    INDEX 01 01:16:48
  TRACK 69 AUDIO
    TITLE "0:"
    INDEX 01 01:18:68
  TRACK 70 AUDIO
    TITLE "20:cjc023_0835"
    INDEX 01 01:19:66
  TRACK 71 AUDIO
    TITLE "0:"
    INDEX 01 01:21:06
  TRACK 72 AUDIO
    TITLE "21:cjc023_0836"
    INDEX 01 01:21:27
  TRACK 73 AUDIO
    TITLE "0:"
    INDEX 01 01:23:36
  TRACK 74 AUDIO
    TITLE "20:cjc023_0837"
    INDEX 01 01:24:36
  TRACK 75 AUDIO
    TITLE "0:"
    INDEX 01 01:25:33
  TRACK 76 AUDIO
    TITLE "21:cjc023_0838"
    INDEX 01 01:25:57
  TRACK 77 AUDIO
    TITLE "0:"
    INDEX 01 01:28:18
  TRACK 78 AUDIO
    TITLE "20:cjc023_0839"
    INDEX 01 01:29:15
  TRACK 79 AUDIO
    TITLE "0:"
    INDEX 01 01:30:18
  TRACK 80 AUDIO
    TITLE "21:cjc023_0840"
    INDEX 01 01:30:40
  TRACK 81 AUDIO
    TITLE "0:"
    INDEX 01 01:33:11
  TRACK 82 AUDIO
    TITLE "20:cjc023_0841"
    INDEX 01 01:34:16
  TRACK 83 AUDIO
    TITLE "0:"
    INDEX 01 01:35:18
  TRACK 84 AUDIO
    TITLE "21:cjc023_0842"
    INDEX 01 01:35:41
  TRACK 85 AUDIO
    TITLE "0:"
    INDEX 01 01:37:73
  TRACK 86 AUDIO
    TITLE "20:cjc023_0843"
    INDEX 01 01:38:67
  TRACK 87 AUDIO
    TITLE "0:"
    INDEX 01 01:40:01
  TRACK 88 AUDIO
    TITLE "21:cjc023_0844"
    INDEX 01 01:40:21
  TRACK 89 AUDIO
    TITLE "0:"
    INDEX 01 01:42:35
  TRACK 90 AUDIO
    TITLE "20:cjc023_0845"
    INDEX 01 01:43:31
  TRACK 91 AUDIO
    TITLE "0:"
    INDEX 01 01:45:20
  TRACK 92 AUDIO
    TITLE "21:cjc023_0846"
    INDEX 01 01:45:45
  TRACK 93 AUDIO
    TITLE "0:"
    INDEX 01 01:48:48
  TRACK 94 AUDIO
    TITLE "20:cjc023_0847"
    INDEX 01 01:49:45
  TRACK 95 AUDIO
    TITLE "0:"
    INDEX 01 01:50:64
  TRACK 96 AUDIO
    TITLE "21:cjc023_0848"
    INDEX 01 01:51:11
  TRACK 97 AUDIO
    TITLE "0:"
    INDEX 01 01:53:47
  TRACK 98 AUDIO
    TITLE "20:cjc023_0849"
    INDEX 01 01:54:46
  TRACK 99 AUDIO
    TITLE "0:"
    INDEX 01 01:56:24
  TRACK 100 AUDIO
    TITLE "21:cjc023_0850"
    INDEX 01 01:56:47
  TRACK 101 AUDIO
    TITLE "0:"
    INDEX 01 01:59:12
  TRACK 102 AUDIO
    TITLE "20:cjc023_0851"
    INDEX 01 02:00:12
  TRACK 103 AUDIO
    TITLE "0:"
    INDEX 01 02:01:29
  TRACK 104 AUDIO
    TITLE "21:cjc023_0852"
    INDEX 01 02:01:50
  TRACK 105 AUDIO
    TITLE "0:"
    INDEX 01 02:04:41
  TRACK 106 AUDIO
    TITLE "20:cjc023_0853"
    INDEX 01 02:05:40
  TRACK 107 AUDIO
    TITLE "0:"
    INDEX 01 02:06:42
  TRACK 108 AUDIO
    TITLE "21:cjc023_0854"
    INDEX 01 02:06:67
  TRACK 109 AUDIO
    TITLE "0:"
    INDEX 01 02:09:48
  TRACK 110 AUDIO
    TITLE "20:cjc023_0855"
    INDEX 01 02:10:47
  TRACK 111 AUDIO
    TITLE "0:"
    INDEX 01 02:11:63
  TRACK 112 AUDIO
    TITLE "21:cjc023_0856"
    INDEX 01 02:12:11
  TRACK 113 AUDIO
    TITLE "0:"
    INDEX 01 02:14:53
  TRACK 114 AUDIO
    TITLE "20:cjc023_0857"
    INDEX 01 02:15:54
  TRACK 115 AUDIO
    TITLE "0:"
    INDEX 01 02:16:66
  TRACK 116 AUDIO
    TITLE "21:cjc023_0858"
    INDEX 01 02:17:18
  TRACK 117 AUDIO
    TITLE "0:"
    INDEX 01 02:19:54
  TRACK 118 AUDIO
    TITLE "20:cjc023_0859"
    INDEX 01 02:20:54
  TRACK 119 AUDIO
    TITLE "0:"
    INDEX 01 02:22:00
  TRACK 120 AUDIO
    TITLE "21:cjc023_0860"
    INDEX 01 02:22:31
  TRACK 121 AUDIO
    TITLE "0:"
    INDEX 01 02:24:65
  TRACK 122 AUDIO
    TITLE "20:cjc023_0861"
    INDEX 01 02:26:01
  TRACK 123 AUDIO
    TITLE "0:"
    INDEX 01 02:26:74
  TRACK 124 AUDIO
    TITLE "21:cjc023_0862"
    INDEX 01 02:27:26
  TRACK 125 AUDIO
    TITLE "0:"
    INDEX 01 02:30:09
  TRACK 126 AUDIO
    TITLE "20:cjc023_0863"
    INDEX 01 02:31:08
  TRACK 127 AUDIO
    TITLE "0:"
    INDEX 01 02:32:24
  TRACK 128 AUDIO
    TITLE "21:cjc023_0864"
    INDEX 01 02:32:45
  TRACK 129 AUDIO
    TITLE "0:"
    INDEX 01 02:35:36
  TRACK 130 AUDIO
    TITLE "20:cjc023_0865"
    INDEX 01 02:36:35
  TRACK 131 AUDIO
    TITLE "0:"
    INDEX 01 02:37:44
  TRACK 132 AUDIO
    TITLE "21:cjc023_0866"
    INDEX 01 02:37:66
  TRACK 133 AUDIO
    TITLE "0:"
    INDEX 01 02:40:58
  TRACK 134 AUDIO
    TITLE "20:cjc023_0867"
    INDEX 01 02:41:56
  TRACK 135 AUDIO
    TITLE "0:"
    INDEX 01 02:42:59
  TRACK 136 AUDIO
    TITLE "21:cjc023_0868"
    INDEX 01 02:43:08
  TRACK 137 AUDIO
    TITLE "0:"
    INDEX 01 02:45:30
  TRACK 138 AUDIO
    TITLE "20:cjc023_0869"
    INDEX 01 02:46:28
  TRACK 139 AUDIO
    TITLE "0:"
    INDEX 01 02:47:33
  TRACK 140 AUDIO
    TITLE "21:cjc023_0870"
    INDEX 01 02:47:58
  TRACK 141 AUDIO
    TITLE "0:"
    INDEX 01 02:50:57
  TRACK 142 AUDIO
    TITLE "20:cjc023_0871"
    INDEX 01 02:51:56
  TRACK 143 AUDIO
    TITLE "0:"
    INDEX 01 02:52:69
  TRACK 144 AUDIO
    TITLE "21:cjc023_0872"
    INDEX 01 02:53:20
  TRACK 145 AUDIO
    TITLE "0:"
    INDEX 01 02:56:10
  TRACK 146 AUDIO
    TITLE "20:cjc023_0873"
    INDEX 01 02:57:06
  TRACK 147 AUDIO
    TITLE "0:"
    INDEX 01 02:58:15
  TRACK 148 AUDIO
    TITLE "21:cjc023_0874"
    INDEX 01 02:58:39
  TRACK 149 AUDIO
    TITLE "0:"
    INDEX 01 03:01:09
  TRACK 150 AUDIO
    TITLE "20:cjc023_0875"
    INDEX 01 03:02:07
  TRACK 151 AUDIO
    TITLE "0:"
    INDEX 01 03:03:20
  TRACK 152 AUDIO
    TITLE "21:cjc023_0876"
    INDEX 01 03:03:44
  TRACK 153 AUDIO
    TITLE "0:"
    INDEX 01 03:06:09
  TRACK 154 AUDIO
    TITLE "20:cjc023_0877"
    INDEX 01 03:07:04
  TRACK 155 AUDIO
    TITLE "0:"
    INDEX 01 03:08:45
  TRACK 156 AUDIO
    TITLE "21:cjc023_0878"
    INDEX 01 03:08:64
  TRACK 157 AUDIO
    TITLE "0:"
    INDEX 01 03:11:18
  TRACK 158 AUDIO
    TITLE "20:cjc023_0879"
    INDEX 01 03:12:13
  TRACK 159 AUDIO
    TITLE "0:"
    INDEX 01 03:13:48
  TRACK 160 AUDIO
    TITLE "21:cjc023_0880"
    INDEX 01 03:13:69
  TRACK 161 AUDIO
    TITLE "0:"
    INDEX 01 03:16:54
  TRACK 162 AUDIO
    TITLE "20:cjc023_0881"
    INDEX 01 03:17:50
  TRACK 163 AUDIO
    TITLE "0:"
    INDEX 01 03:18:53
  TRACK 164 AUDIO
    TITLE "21:cjc023_0882"
    INDEX 01 03:19:00
  TRACK 165 AUDIO
    TITLE "0:"
    INDEX 01 03:21:12
  TRACK 166 AUDIO
    TITLE "20:cjc023_0883"
    INDEX 01 03:22:08
  TRACK 167 AUDIO
    TITLE "0:"
    INDEX 01 03:23:09
  TRACK 168 AUDIO
    TITLE "21:cjc023_0884"
    INDEX 01 03:23:33
  TRACK 169 AUDIO
    TITLE "0:"
    INDEX 01 03:25:69
  TRACK 170 AUDIO
    TITLE "20:cjc023_0885"
    INDEX 01 03:26:68
  TRACK 171 AUDIO
    TITLE "0:"
    INDEX 01 03:27:62
  TRACK 172 AUDIO
    TITLE "21:cjc023_0886"
    INDEX 01 03:28:12
  TRACK 173 AUDIO
    TITLE "0:"
    INDEX 01 03:30:52
  TRACK 174 AUDIO
    TITLE "20:cjc023_0887"
    INDEX 01 03:31:48
  TRACK 175 AUDIO
    TITLE "0:"
    INDEX 01 03:32:47
  TRACK 176 AUDIO
    TITLE "21:cjc023_0888"
    INDEX 01 03:32:69
  TRACK 177 AUDIO
    TITLE "0:"
    INDEX 01 03:35:32
  TRACK 178 AUDIO
    TITLE "20:cjc023_0889"
    INDEX 01 03:36:31
  TRACK 179 AUDIO
    TITLE "0:"
    INDEX 01 03:37:39
  TRACK 180 AUDIO
    TITLE "21:cjc023_0890"
    INDEX 01 03:37:58
  TRACK 181 AUDIO
    TITLE "0:"
    INDEX 01 03:40:66
  TRACK 182 AUDIO
    TITLE "20:cjc023_0891"
    INDEX 01 03:41:62
  TRACK 183 AUDIO
    TITLE "0:"
    INDEX 01 03:42:65
  TRACK 184 AUDIO
    TITLE "21:cjc023_0892"
    INDEX 01 03:43:10
  TRACK 185 AUDIO
    TITLE "0:"
    INDEX 01 03:45:44
  TRACK 186 AUDIO
    TITLE "20:cjc023_0893"
    INDEX 01 03:46:40
  TRACK 187 AUDIO
    TITLE "0:"
    INDEX 01 03:47:35
  TRACK 188 AUDIO
    TITLE "21:cjc023_0894"
    INDEX 01 03:47:57
  TRACK 189 AUDIO
    TITLE "0:"
    INDEX 01 03:49:59
  TRACK 190 AUDIO
    TITLE "20:cjc023_0895"
    INDEX 01 03:50:55
  TRACK 191 AUDIO
    TITLE "0:"
    INDEX 01 03:52:09
  TRACK 192 AUDIO
    TITLE "21:cjc023_0896"
    INDEX 01 03:52:34
  TRACK 193 AUDIO
    TITLE "0:"
    INDEX 01 03:55:15
  TRACK 194 AUDIO
    TITLE "20:cjc023_0897"
    INDEX 01 03:56:16
  TRACK 195 AUDIO
    TITLE "0:"
    INDEX 01 03:57:24
  TRACK 196 AUDIO
    TITLE "21:cjc023_0898"
    INDEX 01 03:57:45
  TRACK 197 AUDIO
    TITLE "0:"
    INDEX 01 04:00:30
  TRACK 198 AUDIO
    TITLE "20:cjc023_0899"
    INDEX 01 04:01:29
  TRACK 199 AUDIO
    TITLE "0:"
    INDEX 01 04:02:39
  TRACK 200 AUDIO
    TITLE "21:cjc023_0900"
    INDEX 01 04:02:64
  TRACK 201 AUDIO
    TITLE "0:"
    INDEX 01 04:04:69
  TRACK 202 AUDIO
    TITLE "20:cjc023_0901"
    INDEX 01 04:05:68
  TRACK 203 AUDIO
    TITLE "0:"
    INDEX 01 04:07:08
  TRACK 204 AUDIO
    TITLE "21:cjc023_0902"
    INDEX 01 04:07:32
  TRACK 205 AUDIO
    TITLE "0:"
    INDEX 01 04:09:41
  TRACK 206 AUDIO
    TITLE "20:cjc023_0903"
    INDEX 01 04:10:38
  TRACK 207 AUDIO
    TITLE "0:"
    INDEX 01 04:11:49
  TRACK 208 AUDIO
    TITLE "21:cjc023_0904"
    INDEX 01 04:11:73
  TRACK 209 AUDIO
    TITLE "0:"
    INDEX 01 04:15:00
  TRACK 210 AUDIO
    TITLE "20:cjc023_0905"
    INDEX 01 04:15:73
  TRACK 211 AUDIO
    TITLE "0:"
    INDEX 01 04:17:09
  TRACK 212 AUDIO
    TITLE "21:cjc023_0906"
    INDEX 01 04:17:30
  TRACK 213 AUDIO
    TITLE "0:"
    INDEX 01 04:20:15
  TRACK 214 AUDIO
    TITLE "20:cjc023_0907"
    INDEX 01 04:21:18
  TRACK 215 AUDIO
    TITLE "0:"
    INDEX 01 04:22:47
  TRACK 216 AUDIO
    TITLE "21:cjc023_0908"
    INDEX 01 04:22:71
  TRACK 217 AUDIO
    TITLE "0:"
    INDEX 01 04:26:14
  TRACK 218 AUDIO
    TITLE "20:cjc023_0909"
    INDEX 01 04:27:11
  TRACK 219 AUDIO
    TITLE "0:"
    INDEX 01 04:28:16
  TRACK 220 AUDIO
    TITLE "21:cjc023_0910"
    INDEX 01 04:28:40
  TRACK 221 AUDIO
    TITLE "0:"
    INDEX 01 04:30:41
  TRACK 222 AUDIO
    TITLE "20:cjc023_0911"
    INDEX 01 04:31:40
  TRACK 223 AUDIO
    TITLE "0:"
    INDEX 01 04:33:00
  TRACK 224 AUDIO
    TITLE "21:cjc023_0912"
    INDEX 01 04:33:25
  TRACK 225 AUDIO
    TITLE "0:"
    INDEX 01 04:36:32
  TRACK 226 AUDIO
    TITLE "20:cjc023_0913"
    INDEX 01 04:37:27
  TRACK 227 AUDIO
    TITLE "0:"
    INDEX 01 04:38:42
  TRACK 228 AUDIO
    TITLE "21:cjc023_0914"
    INDEX 01 04:38:66
  TRACK 229 AUDIO
    TITLE "0:"
    INDEX 01 04:42:15
  TRACK 230 AUDIO
    TITLE "20:cjc023_0915"
    INDEX 01 04:43:10
  TRACK 231 AUDIO
    TITLE "0:"
    INDEX 01 04:44:25
  TRACK 232 AUDIO
    TITLE "21:cjc023_0916"
    INDEX 01 04:44:49
  TRACK 233 AUDIO
    TITLE "0:"
    INDEX 01 04:47:12
  TRACK 234 AUDIO
    TITLE "20:cjc023_0917"
    INDEX 01 04:48:11
  TRACK 235 AUDIO
    TITLE "0:"
    INDEX 01 04:49:26
  TRACK 236 AUDIO
    TITLE "21:cjc023_0918"
    INDEX 01 04:49:50
  TRACK 237 AUDIO
    TITLE "0:"
    INDEX 01 04:52:17
  TRACK 238 AUDIO
    TITLE "20:cjc023_0919"
    INDEX 01 04:53:18
  TRACK 239 AUDIO
    TITLE "0:"
    INDEX 01 04:54:43
  TRACK 240 AUDIO
    TITLE "21:cjc023_0920"
    INDEX 01 04:54:65
  TRACK 241 AUDIO
    TITLE "0:"
    INDEX 01 04:57:30
  TRACK 242 AUDIO
    TITLE "20:cjc023_0921"
    INDEX 01 04:58:31
  TRACK 243 AUDIO
    TITLE "0:"
    INDEX 01 04:59:48
  TRACK 244 AUDIO
    TITLE "21:cjc023_0922"
    INDEX 01 04:59:70
  TRACK 245 AUDIO
    TITLE "0:"
    INDEX 01 05:02:27
  TRACK 246 AUDIO
    TITLE "20:cjc023_0923"
    INDEX 01 05:03:25
  TRACK 247 AUDIO
    TITLE "0:"
    INDEX 01 05:04:30
  TRACK 248 AUDIO
    TITLE "21:cjc023_0924"
    INDEX 01 05:04:55
  TRACK 249 AUDIO
    TITLE "0:"
    INDEX 01 05:06:56
  TRACK 250 AUDIO
    TITLE "20:cjc023_0925"
    INDEX 01 05:07:54
  TRACK 251 AUDIO
    TITLE "0:"
    INDEX 01 05:09:04
  TRACK 252 AUDIO
    TITLE "21:cjc023_0926"
    INDEX 01 05:09:25
  TRACK 253 AUDIO
    TITLE "0:"
    INDEX 01 05:11:69
  TRACK 254 AUDIO
    TITLE "20:cjc023_0927"
    INDEX 01 05:12:65
  TRACK 255 AUDIO
    TITLE "0:"
    INDEX 01 05:14:30
  TRACK 256 AUDIO
    TITLE "21:cjc023_0928"
    INDEX 01 05:14:46
  TRACK 257 AUDIO
    TITLE "0:"
    INDEX 01 05:16:74
  TRACK 258 AUDIO
    TITLE "20:cjc023_0929"
    INDEX 01 05:18:06
  TRACK 259 AUDIO
    TITLE "0:"
    INDEX 01 05:19:41
  TRACK 260 AUDIO
    TITLE "21:cjc023_0930"
    INDEX 01 05:19:63
  TRACK 261 AUDIO
    TITLE "0:"
    INDEX 01 05:22:30
  TRACK 262 AUDIO
    TITLE "20:cjc023_0931"
    INDEX 01 05:23:25
  TRACK 263 AUDIO
    TITLE "0:"
    INDEX 01 05:24:27
  TRACK 264 AUDIO
    TITLE "21:cjc023_0932"
    INDEX 01 05:24:54
  TRACK 265 AUDIO
    TITLE "0:"
    INDEX 01 05:26:63
  TRACK 266 AUDIO
    TITLE "20:cjc023_0933"
    INDEX 01 05:27:68
  TRACK 267 AUDIO
    TITLE "0:"
    INDEX 01 05:29:06
  TRACK 268 AUDIO
    TITLE "21:cjc023_0934"
    INDEX 01 05:29:22
  TRACK 269 AUDIO
    TITLE "0:"
    INDEX 01 05:31:56
  TRACK 270 AUDIO
    TITLE "20:cjc023_0935"
    INDEX 01 05:32:63
  TRACK 271 AUDIO
    TITLE "0:"
    INDEX 01 05:34:00
  TRACK 272 AUDIO
    TITLE "21:cjc023_0936"
    INDEX 01 05:34:29
  TRACK 273 AUDIO
    TITLE "0:"
    INDEX 01 05:36:57
  TRACK 274 AUDIO
    TITLE "20:cjc023_0937"
    INDEX 01 05:37:57
  TRACK 275 AUDIO
    TITLE "0:"
    INDEX 01 05:39:07
  TRACK 276 AUDIO
    TITLE "21:cjc023_0938"
    INDEX 01 05:39:28
  TRACK 277 AUDIO
    TITLE "0:"
    INDEX 01 05:42:11
  TRACK 278 AUDIO
    TITLE "20:cjc023_0939"
    INDEX 01 05:43:10
  TRACK 279 AUDIO
    TITLE "0:"
    INDEX 01 05:44:27
  TRACK 280 AUDIO
    TITLE "21:cjc023_0940"
    INDEX 01 05:44:47
  TRACK 281 AUDIO
    TITLE "0:"
    INDEX 01 05:47:08
  TRACK 282 AUDIO
    TITLE "20:cjc023_0941"
    INDEX 01 05:48:06
  TRACK 283 AUDIO
    TITLE "0:"
    INDEX 01 05:48:74
  TRACK 284 AUDIO
    TITLE "21:cjc023_0942"
    INDEX 01 05:49:21
  TRACK 285 AUDIO
    TITLE "0:"
    INDEX 01 05:51:45
  TRACK 286 AUDIO
    TITLE "20:cjc023_0943"
    INDEX 01 05:52:43
  TRACK 287 AUDIO
    TITLE "0:"
    INDEX 01 05:53:54
  TRACK 288 AUDIO
    TITLE "21:cjc023_0944"
    INDEX 01 05:54:00
  TRACK 289 AUDIO
    TITLE "0:"
    INDEX 01 05:56:23
  TRACK 290 AUDIO
    TITLE "20:cjc023_0945"
    INDEX 01 05:57:22
  TRACK 291 AUDIO
    TITLE "0:"
    INDEX 01 05:58:18
  TRACK 292 AUDIO
    TITLE "21:cjc023_0946"
    INDEX 01 05:58:39
  TRACK 293 AUDIO
    TITLE "0:"
    INDEX 01 06:00:56
  TRACK 294 AUDIO
    TITLE "20:cjc023_0947"
    INDEX 01 06:01:55
  TRACK 295 AUDIO
    TITLE "0:"
    INDEX 01 06:02:61
  TRACK 296 AUDIO
    TITLE "21:cjc023_0948"
    INDEX 01 06:03:05
  TRACK 297 AUDIO
    TITLE "0:"
    INDEX 01 06:05:43
  TRACK 298 AUDIO
    TITLE "20:cjc023_0949"
    INDEX 01 06:06:41
  TRACK 299 AUDIO
    TITLE "0:"
    INDEX 01 06:07:70
  TRACK 300 AUDIO
    TITLE "21:cjc023_0950"
    INDEX 01 06:08:16
  TRACK 301 AUDIO
    TITLE "0:"
    INDEX 01 06:11:30
  TRACK 302 AUDIO
    TITLE "20:cjc023_0951"
    INDEX 01 06:12:26
  TRACK 303 AUDIO
    TITLE "0:"
    INDEX 01 06:13:33
  TRACK 304 AUDIO
    TITLE "21:cjc023_0952"
    INDEX 01 06:13:68
  TRACK 305 AUDIO
    TITLE "0:"
    INDEX 01 06:16:16
  TRACK 306 AUDIO
    TITLE "20:cjc023_0953"
    INDEX 01 06:17:15
  TRACK 307 AUDIO
    TITLE "0:"
    INDEX 01 06:18:18
  TRACK 308 AUDIO
    TITLE "21:cjc023_0954"
    INDEX 01 06:18:36
  TRACK 309 AUDIO
    TITLE "0:"
    INDEX 01 06:20:60
  TRACK 310 AUDIO
    TITLE "20:cjc023_0955"
    INDEX 01 06:21:56
  TRACK 311 AUDIO
    TITLE "0:"
    INDEX 01 06:23:00
  TRACK 312 AUDIO
    TITLE "21:cjc023_0956"
    INDEX 01 06:23:24
  TRACK 313 AUDIO
    TITLE "0:"
    INDEX 01 06:25:66
  TRACK 314 AUDIO
    TITLE "20:cjc023_0957"
    INDEX 01 06:26:63
  TRACK 315 AUDIO
    TITLE "0:"
    INDEX 01 06:28:21
  TRACK 316 AUDIO
    TITLE "21:cjc023_0958"
    INDEX 01 06:28:42
  TRACK 317 AUDIO
    TITLE "0:"
    INDEX 01 06:31:15
  TRACK 318 AUDIO
    TITLE "20:cjc023_0959"
    INDEX 01 06:32:13
  TRACK 319 AUDIO
    TITLE "0:"
    INDEX 01 06:33:40
  TRACK 320 AUDIO
    TITLE "21:cjc023_0960"
    INDEX 01 06:33:61
  TRACK 321 AUDIO
    TITLE "0:"
    INDEX 01 06:36:24
  TRACK 322 AUDIO
    TITLE "20:cjc023_0961"
    INDEX 01 06:37:20
  TRACK 323 AUDIO
    TITLE "0:"
    INDEX 01 06:38:35
  TRACK 324 AUDIO
    TITLE "21:cjc023_0962"
    INDEX 01 06:38:60
  TRACK 325 AUDIO
    TITLE "0:"
    INDEX 01 06:41:45
  TRACK 326 AUDIO
    TITLE "20:cjc023_0963"
    INDEX 01 06:42:42
  TRACK 327 AUDIO
    TITLE "0:"
    INDEX 01 06:43:48
  TRACK 328 AUDIO
    TITLE "21:cjc023_0964"
    INDEX 01 06:43:71
  TRACK 329 AUDIO
    TITLE "0:"
    INDEX 01 06:46:56
  TRACK 330 AUDIO
    TITLE "20:cjc023_0965"
    INDEX 01 06:47:53
  TRACK 331 AUDIO
    TITLE "0:"
    INDEX 01 06:48:63
  TRACK 332 AUDIO
    TITLE "21:cjc023_0966"
    INDEX 01 06:49:11
  TRACK 333 AUDIO
    TITLE "0:"
    INDEX 01 06:52:13
  TRACK 334 AUDIO
    TITLE "20:cjc023_0967"
    INDEX 01 06:53:13
  TRACK 335 AUDIO
    TITLE "0:"
    INDEX 01 06:54:26
  TRACK 336 AUDIO
    TITLE "21:cjc023_0968"
    INDEX 01 06:54:52
  TRACK 337 AUDIO
    TITLE "0:"
    INDEX 01 06:57:44
  TRACK 338 AUDIO
    TITLE "20:cjc023_0969"
    INDEX 01 06:58:45
  TRACK 339 AUDIO
    TITLE "0:"
    INDEX 01 06:59:45
  TRACK 340 AUDIO
    TITLE "21:cjc023_0970"
    INDEX 01 06:59:70
  TRACK 341 AUDIO
    TITLE "0:"
    INDEX 01 07:02:43
  TRACK 342 AUDIO
    TITLE "20:cjc023_0971"
    INDEX 01 07:03:41
  TRACK 343 AUDIO
    TITLE "0:"
    INDEX 01 07:04:66
  TRACK 344 AUDIO
    TITLE "21:cjc023_0972"
    INDEX 01 07:05:16
  TRACK 345 AUDIO
    TITLE "0:"
    INDEX 01 07:08:20
  TRACK 346 AUDIO
    TITLE "20:cjc023_0973"
    INDEX 01 07:09:18
  TRACK 347 AUDIO
    TITLE "0:"
    INDEX 01 07:10:23
  TRACK 348 AUDIO
    TITLE "21:cjc023_0974"
    INDEX 01 07:10:49
  TRACK 349 AUDIO
    TITLE "0:"
    INDEX 01 07:13:00
  TRACK 350 AUDIO
    TITLE "20:cjc023_0975"
    INDEX 01 07:13:72
  TRACK 351 AUDIO
    TITLE "0:"
    INDEX 01 07:15:20
  TRACK 352 AUDIO
    TITLE "21:cjc023_0976"
    INDEX 01 07:15:42
  TRACK 353 AUDIO
    TITLE "0:"
    INDEX 01 07:18:29
  TRACK 354 AUDIO
    TITLE "20:cjc023_0977"
    INDEX 01 07:19:26
  TRACK 355 AUDIO
    TITLE "0:"
    INDEX 01 07:20:31
  TRACK 356 AUDIO
    TITLE "21:cjc023_0978"
    INDEX 01 07:20:53
  TRACK 357 AUDIO
    TITLE "0:"
    INDEX 01 07:23:63
  TRACK 358 AUDIO
    TITLE "20:cjc023_0979"
    INDEX 01 07:24:60
  TRACK 359 AUDIO
    TITLE "0:"
    INDEX 01 07:25:74
  TRACK 360 AUDIO
    TITLE "21:cjc023_0980"
    INDEX 01 07:26:22
  TRACK 361 AUDIO
    TITLE "0:"
    INDEX 01 07:28:58
  TRACK 362 AUDIO
    TITLE "20:cjc023_0981"
    INDEX 01 07:29:56
  TRACK 363 AUDIO
    TITLE "0:"
    INDEX 01 07:31:17
  TRACK 364 AUDIO
    TITLE "21:cjc023_0982"
    INDEX 01 07:31:37
  TRACK 365 AUDIO
    TITLE "0:"
    INDEX 01 07:33:69
  TRACK 366 AUDIO
    TITLE "20:cjc023_0983"
    INDEX 01 07:34:67
  TRACK 367 AUDIO
    TITLE "0:"
    INDEX 01 07:36:21
  TRACK 368 AUDIO
    TITLE "21:cjc023_0984"
    INDEX 01 07:36:42
  TRACK 369 AUDIO
    TITLE "0:"
    INDEX 01 07:39:17
  TRACK 370 AUDIO
    TITLE "20:cjc023_0985"
    INDEX 01 07:40:12
  TRACK 371 AUDIO
    TITLE "0:"
    INDEX 01 07:41:08
  TRACK 372 AUDIO
    TITLE "21:cjc023_0986"
    INDEX 01 07:41:33
  TRACK 373 AUDIO
    TITLE "0:"
    INDEX 01 07:44:06
  TRACK 374 AUDIO
    TITLE "20:cjc023_0987"
    INDEX 01 07:45:04
  TRACK 375 AUDIO
    TITLE "0:"
    INDEX 01 07:46:23
  TRACK 376 AUDIO
    TITLE "21:cjc023_0988"
    INDEX 01 07:46:48
  TRACK 377 AUDIO
    TITLE "0:"
    INDEX 01 07:49:39
  TRACK 378 AUDIO
    TITLE "20:cjc023_0989"
    INDEX 01 07:50:34
  TRACK 379 AUDIO
    TITLE "0:"
    INDEX 01 07:51:57
  TRACK 380 AUDIO
    TITLE "21:cjc023_0990"
    INDEX 01 07:52:04
  TRACK 381 AUDIO
    TITLE "0:"
    INDEX 01 07:54:71
  TRACK 382 AUDIO
    TITLE "20:cjc023_0991"
    INDEX 01 07:55:69
  TRACK 383 AUDIO
    TITLE "0:"
    INDEX 01 07:57:21
  TRACK 384 AUDIO
    TITLE "21:cjc023_0992"
    INDEX 01 07:57:42
  TRACK 385 AUDIO
    TITLE "0:"
    INDEX 01 08:00:21
  TRACK 386 AUDIO
    TITLE "20:cjc023_0993"
    INDEX 01 08:01:15
  TRACK 387 AUDIO
    TITLE "0:"
    INDEX 01 08:02:30
  TRACK 388 AUDIO
    TITLE "21:cjc023_0994"
    INDEX 01 08:02:53
  TRACK 389 AUDIO
    TITLE "0:"
    INDEX 01 08:04:72
  TRACK 390 AUDIO
    TITLE "20:cjc023_0995"
    INDEX 01 08:05:67
  TRACK 391 AUDIO
    TITLE "0:"
    INDEX 01 08:07:15
  TRACK 392 AUDIO
    TITLE "21:cjc023_0996"
    INDEX 01 08:07:35
  TRACK 393 AUDIO
    TITLE "0:"
    INDEX 01 08:10:06
  TRACK 394 AUDIO
    TITLE "20:cjc023_0997"
    INDEX 01 08:11:03
  TRACK 395 AUDIO
    TITLE "0:"
    INDEX 01 08:12:24
  TRACK 396 AUDIO
    TITLE "21:cjc023_0998"
    INDEX 01 08:12:50
  TRACK 397 AUDIO
    TITLE "0:"
    INDEX 01 08:15:09
  TRACK 398 AUDIO
    TITLE "20:cjc023_0999"
    INDEX 01 08:16:06
  TRACK 399 AUDIO
    TITLE "0:"
    INDEX 01 08:17:08
  TRACK 400 AUDIO
    TITLE "21:cjc023_1000"
    INDEX 01 08:17:31
  TRACK 401 AUDIO
    TITLE "0:"
    INDEX 01 08:20:36
